<svg id="Layer_2" data-name="Layer 2" xmlns="http://www.w3.org/2000/svg" xmlns:xlink="http://www.w3.org/1999/xlink" viewBox="0 0 60 60"><defs><style>.cls-1{fill:url(#linear-gradient);}.cls-2{fill:#fff;stroke-width:1.23px;}.cls-2,.cls-4,.cls-5{stroke:#000;stroke-miterlimit:10;}.cls-3{fill:#1d1d1d;}.cls-4,.cls-5{fill:none;}.cls-4{stroke-width:0.61px;}.cls-5{stroke-linecap:round;stroke-width:0.92px;}</style><linearGradient id="linear-gradient" x1="212.17" y1="650.67" x2="270.22" y2="650.67" gradientTransform="translate(680.67 -211.2) rotate(90)" gradientUnits="userSpaceOnUse"><stop offset="0" stop-color="#2c3873"/><stop offset="0" stop-color="#8e4c6b"/><stop offset="0.25" stop-color="#ea6958"/><stop offset="0.26" stop-color="#ea6b56"/><stop offset="0.36" stop-color="#ec7e49"/><stop offset="0.43" stop-color="#ed8544"/><stop offset="0.54" stop-color="#f7c061"/><stop offset="0.55" stop-color="#e4c279"/><stop offset="0.55" stop-color="#c1c6a4"/><stop offset="0.55" stop-color="#a9c9c3"/><stop offset="0.55" stop-color="#99cad6"/><stop offset="0.55" stop-color="#94cbdd"/><stop offset="0.67" stop-color="#009bb5"/><stop offset="0.96" stop-color="#478ea3"/><stop offset="1" stop-color="#007c8d"/></linearGradient></defs><title>conchArtboard 1</title><rect class="cls-1" x="0.97" y="0.97" width="58.06" height="58.06" rx="16.21" ry="16.21"/><path d="M42.82,1.88a15.31,15.31,0,0,1,15.3,15.3V42.82a15.31,15.31,0,0,1-15.3,15.3H17.18a15.31,15.31,0,0,1-15.3-15.3V17.18a15.31,15.31,0,0,1,15.3-15.3H42.82m0-1.81H17.18A17.11,17.11,0,0,0,.07,17.18V42.82A17.11,17.11,0,0,0,17.18,59.93H42.82A17.11,17.11,0,0,0,59.93,42.82V17.18A17.11,17.11,0,0,0,42.82.07Z"/><path class="cls-2" d="M5.08,12.16c1.37-1,4.54,3.17,6.25,3.78s3.43-.61,5.23,0,1.2,2.38,2.22,2.91,2.4-1.76,5.06-.53,1.71,3.52,3.08,4.67,1.93-.27,3.45.7.49,1.5,1.77,2.47,2.57-1.24,4.88,1.05,2.91,1.7,3.94,7.9-.94,8.3,0,12.7,3,4.12,3.17,5.55,0,1.61-.77,2.11-1.33.88-3.6,0S36,52,33.51,50.72s-2.39-1.25-4.71-1.14-4.26.51-4.88,1.05-.38,1.19-1.8,1.32-2-.84-2.91-1.32-2.77.75-4,0a15.48,15.48,0,0,1-3.08-3.43,4.89,4.89,0,0,1-1.72-2.47C9.84,43,10.73,42,10.48,41s-3.7-2.26-4.37-3.17a4.49,4.49,0,0,1-1-2.67C5,34,6.79,30.7,6.88,29.68s-1.54-2.57-1.8-3.26.67-1.65.67-2.47-1.32-.87-1.69-1.85S5.28,17.94,5.34,17,3.71,13.12,5.08,12.16Z"/><path class="cls-3" d="M5.78,24.11l0-.31A9.9,9.9,0,0,0,8.51,23a3.28,3.28,0,0,0,1.07-.9c.32-.37.61-.76.9-1.16.54-.65,1.06-1.33,1.56-2-.43.77-.87,1.53-1.35,2.28-.29.39-.58.78-.91,1.15a3.66,3.66,0,0,1-1.17,1A10.43,10.43,0,0,1,5.78,24.11Z"/><path class="cls-3" d="M18.63,18.87l.3,0c.11.93.2,1.86.23,2.79a13.52,13.52,0,0,1,0,1.42,4.67,4.67,0,0,1-.4,1.38,11.68,11.68,0,0,1-1.37,2,12,12,0,0,0,1.13-2.2,5.44,5.44,0,0,0,.36-2.63C18.82,20.69,18.74,19.77,18.63,18.87Z"/><path class="cls-3" d="M6.79,29.81,7,29.54a6.59,6.59,0,0,0,2.78,1,5.22,5.22,0,0,0,2.85-.69A17.37,17.37,0,0,0,15,28.67a17.63,17.63,0,0,1-2.31,1.51,5.41,5.41,0,0,1-3,.68A7,7,0,0,1,6.79,29.81Z"/><path class="cls-3" d="M10.45,41l.06-.07a3.26,3.26,0,0,0,1.62.13h.73l-.74.1A3.08,3.08,0,0,1,10.45,41Z"/><path class="cls-3" d="M26.49,23.08l.85-.19A10,10,0,0,1,27.53,25a3.76,3.76,0,0,1-.62,2.17,6.91,6.91,0,0,1-.79.73,2.92,2.92,0,0,0-.56.69,6.82,6.82,0,0,0-.73,1.73,17.51,17.51,0,0,0-.31,1.94,10.23,10.23,0,0,1-.51,2,7.41,7.41,0,0,1-1,1.91,6.22,6.22,0,0,1-1.54,1.49L20,38.58c-.52.31-1.05.56-1.58.81-1.07.48-2.16.9-3.25,1.28,1.07-.53,2.13-1.1,3.14-1.72a15,15,0,0,0,1.46-1c.48-.38,1-.73,1.41-1.1a5.61,5.61,0,0,0,2.06-3A9.85,9.85,0,0,0,23.68,32,13.85,13.85,0,0,1,24,30a7.72,7.72,0,0,1,.85-1.93,4.16,4.16,0,0,1,.72-.85,4.13,4.13,0,0,0,.66-.6A3.13,3.13,0,0,0,26.66,25,9,9,0,0,0,26.49,23.08Z"/><path class="cls-3" d="M31.7,26.2l.88-.09.22,2a16.62,16.62,0,0,1,.05,2.1c0,.69,0,1.37-.07,2.06l-.07,1a7.77,7.77,0,0,0,0,1,28,28,0,0,1,.16,4.14,16.86,16.86,0,0,1-.35,2.07,3.66,3.66,0,0,1-.37,1.1,3.53,3.53,0,0,1-.83.82c-1.9,1.37-3.8,2.81-5.69,4.22,1.77-1.68,3.5-3.38,5.31-5a1.45,1.45,0,0,0,.52-.59,5.26,5.26,0,0,0,.24-.88A15.44,15.44,0,0,0,32,38.21a36.71,36.71,0,0,0-.18-4,7.51,7.51,0,0,1,0-1.06l.06-1c0-.66.06-1.33.06-2a14.06,14.06,0,0,0-.05-2Z"/><path class="cls-3" d="M19.25,50.73l-.08-.19,1.77-.74a9.43,9.43,0,0,0,1.7-.8c.5-.24,1-.49,1.46-.76-.46.33-.92.66-1.4,1A12.2,12.2,0,0,1,21,50Z"/><path class="cls-4" d="M32.41,28.66a8.45,8.45,0,0,1,3.82,1.2c1.49,1.06,1.84,1.88,2.79,4.61s.54,3.76.54,6.28-.76,5.08-.42,7,1.3,2.1,1.64,3.3.27,2.63-.3,3.06-1.57-1-3.52-2.51-3.21-2.36-4.28-4-2.77-4.52-2.77-4.52"/><polygon class="cls-3" points="22.82 35.77 22.99 35.54 26.12 37.86 27.02 39.03 28.3 40.96 26.75 39.15 25.92 38.07 22.82 35.77"/><polygon class="cls-3" points="24.07 32.7 24.13 32.45 27.57 33.36 28.48 34.19 29.9 35.67 28.26 34.33 27.45 33.59 24.07 32.7"/><polygon class="cls-3" points="4.71 15.06 4.96 14.93 7 18.77 7.49 19.3 8.88 21.02 7.24 19.43 6.77 18.93 4.71 15.06"/><polygon class="cls-3" points="4.97 12.24 5.2 12.07 7.3 14.9 8.52 15.91 10.14 17.44 8.29 16.07 7.1 15.09 4.97 12.24"/><polygon class="cls-3" points="5.28 18.54 5.38 18.49 6.24 20.21 6.24 20.42 6.18 21.34 6.13 20.39 6.13 20.24 5.28 18.54"/><polygon class="cls-3" points="11.39 19.83 11.54 19.68 13.34 21.55 14.5 21.97 16.03 22.65 14.38 22.15 13.22 21.73 11.39 19.83"/><polygon class="cls-3" points="9.75 22.07 9.95 21.94 11.77 24.71 12.54 25.56 13.74 27.08 12.32 25.67 11.57 24.86 9.75 22.07"/><polygon class="cls-3" points="8.42 23.21 8.58 23.13 9.77 25.42 10.04 26.1 10.47 27.46 9.85 26.12 9.61 25.49 8.42 23.21"/><polygon class="cls-3" points="6.76 23.72 6.96 23.74 6.61 26.42 6.98 27.12 7.61 28.53 6.79 27.17 6.41 26.46 6.76 23.72"/><polygon class="cls-3" points="13.9 29.32 14.16 29.19 15.81 32.49 16.85 33.77 18.18 35.66 16.57 33.89 15.57 32.65 13.9 29.32"/><polygon class="cls-3" points="10.96 30.65 11.25 30.6 11.81 33.84 12.98 35.44 14.23 37.4 12.71 35.55 11.53 33.96 10.96 30.65"/><polygon class="cls-3" points="8.34 30.43 8.66 30.44 8.44 34.55 9.08 36.26 9.84 38.76 8.75 36.3 8.11 34.6 8.34 30.43"/><polygon class="cls-3" points="17.66 26.04 17.75 25.88 19.77 27 20.47 27.81 21.35 28.96 20.3 27.89 19.65 27.14 17.66 26.04"/><polygon class="cls-3" points="18.92 23.4 18.97 23.18 21.7 23.85 22.88 24.75 24.25 25.97 22.69 24.89 21.6 24.06 18.92 23.4"/><polygon class="cls-3" points="18.93 20.28 18.9 20.07 21.92 19.64 22.77 20.29 24.09 21.43 22.6 20.43 21.86 19.87 18.93 20.28"/><polygon class="cls-3" points="25.17 28.54 25.17 28.38 27.09 28.38 27.96 28.82 29.02 29.46 27.85 28.94 27.05 28.54 25.17 28.54"/><polygon class="cls-3" points="19.76 38.31 20.04 38.24 20.99 42 21.65 43.18 22.63 45.25 21.37 43.26 20.72 42.11 19.76 38.31"/><polygon class="cls-3" points="17.66 39.51 17.96 39.51 17.96 43.56 18.63 44.74 19.67 46.87 18.34 44.82 17.66 43.64 17.66 39.51"/><polygon class="cls-3" points="11.67 41.15 11.99 41.07 13.01 45.16 14.1 46.44 15.64 48.52 13.8 46.58 12.71 45.31 11.67 41.15"/><polygon class="cls-3" points="32.7 47.68 32.65 47.59 34.84 46.35 35.81 45.87 34.86 46.47 32.7 47.68"/><polygon class="cls-3" points="31.21 45.31 31.16 45.17 34.28 43.88 35.66 43.4 34.29 44.03 31.21 45.31"/><polygon class="cls-3" points="32.3 39.48 32.25 39.36 35.07 38.4 36.31 38.05 35.07 38.53 32.3 39.48"/><polygon class="cls-3" points="32.47 36.49 32.44 36.36 35.5 35.56 36.85 35.3 35.49 35.71 32.47 36.49"/><polygon class="cls-3" points="32.3 33.32 32.25 33.17 34.65 32.5 35.71 32.71 37.19 33.09 35.63 32.85 34.65 32.65 32.3 33.32"/><polygon class="cls-3" points="30.39 42.73 30.34 42.56 34.33 41.44 36.08 41.05 34.32 41.62 30.39 42.73"/><path class="cls-5" d="M39.72,26.71s4.11-4.47,0-8.7-8.46,0-8.46,0"/><path class="cls-5" d="M44.4,26s5.61-6.75-.19-12.72-12.56.2-12.56.2"/><path class="cls-5" d="M48.64,28.59s9.89-9.9,0-20.07-18.9,0-18.9,0"/></svg>