<svg id="Layer_2" data-name="Layer 2" xmlns="http://www.w3.org/2000/svg" viewBox="0 0 41.43 45.22"><title>conch</title><path d="M41.35,41.89a2.5,2.5,0,0,0-1-1.6,6.36,6.36,0,0,1-2.14-4,13.81,13.81,0,0,1,0-5.21,22.66,22.66,0,0,0,0-7.47c-.84-5.08-1.41-5.79-3.07-7.26-.3-.27-.65-.58-1-1a3.54,3.54,0,0,0-3.84-1.09c-.61.14-.84.18-1.1,0a1.16,1.16,0,0,1-.56-.83,2.41,2.41,0,0,0-1.26-1.66,2.66,2.66,0,0,0-2.17-.38,1.19,1.19,0,0,1-1.21-.28,2.68,2.68,0,0,1-.72-1.49,4.31,4.31,0,0,0-2.5-3.26,4.36,4.36,0,0,0-4.17.24c-.34.17-.73.36-.86.3s-.29-.36-.43-.8A2.85,2.85,0,0,0,13.37,4a5.62,5.62,0,0,0-3,0A4.41,4.41,0,0,1,8.16,4a10,10,0,0,1-2.27-1.7C4.26.86,2.58-.61,1.34.26S.63,3.05,1.05,4.42a5.35,5.35,0,0,1,.29,1.14A10.23,10.23,0,0,1,.83,7.21C.2,9-.19,10.17.1,10.93A2.63,2.63,0,0,0,1.31,12.2c.19.12.45.28.45.36a2.48,2.48,0,0,1-.32.89,2.36,2.36,0,0,0-.32,1.79,5.65,5.65,0,0,0,.74,1.16c.4.52,1.06,1.41,1,1.83a12.66,12.66,0,0,1-.76,2.14,9.89,9.89,0,0,0-1,3.38,5,5,0,0,0,1.14,3,7.06,7.06,0,0,0,2.19,1.53A7.58,7.58,0,0,1,6.5,29.7a2.64,2.64,0,0,1-.1,1.07,4.85,4.85,0,0,0,0,2.76,5.66,5.66,0,0,0,1.85,2.71,15.06,15.06,0,0,0,3.22,3.52,3.76,3.76,0,0,0,2.81.13,2.74,2.74,0,0,1,1.24-.11,4.62,4.62,0,0,1,.68.47,3.44,3.44,0,0,0,2.57.92,2,2,0,0,0,1.86-1.09,1.9,1.9,0,0,1,.29-.38c.41-.37,2.09-.79,4.5-.9l.29,0c1.88-.09,1.88-.09,4.11,1.09a14.1,14.1,0,0,1,2.92,2.3,10.69,10.69,0,0,0,3.39,2.48,6.81,6.81,0,0,0,2.35.57,3.15,3.15,0,0,0,1.79-.62C41.37,43.94,41.55,43.48,41.35,41.89Zm-5.9-5.44a4.52,4.52,0,0,0,1,2.29,2.8,2.8,0,0,1,.6,1c.33,1.13.24,2.41-.19,2.73-.15.12-.8-.47-1.31-1A22.59,22.59,0,0,0,33.76,40l-.21-.16a14.56,14.56,0,0,1-4-3.72l1.89-1.06.95-.59-1,.48L29.53,36c-.42-.65-.93-1.48-1.4-2.25l2.78-1.15L32.28,32l-1.38.49-2.85,1.17c-.49-.81-.93-1.53-1.13-1.88l.92-.68,3.1-.87,1.76-.58L31,30l-2.75.77a2.55,2.55,0,0,0,.54-.58,3.85,3.85,0,0,0,.38-1.11c.07-.39.15-.78.22-1.18l2.35-.8,1.24-.49L31.69,27l-2.33.79c0-.24.09-.48.11-.74a12.74,12.74,0,0,0,0-2.05l2.65-.69,1.35-.41-1.34.27-2.67.69c-.05-.67-.11-1.32-.14-1.95,0-.33,0-.65,0-1V21.8l1.94-.54,1,.19,1.56.25-1.48-.38-1.06-.22-1.91.54,0-.73c0-.69.05-1.38.06-2.06,0-.42,0-.82,0-1.23a7.73,7.73,0,0,1,3.2,1.09c1.43,1,1.73,1.77,2.68,4.47a9.92,9.92,0,0,1,.57,4.48c0,.51-.05,1.05-.05,1.7a25.26,25.26,0,0,1-.27,3.13A13.8,13.8,0,0,0,35.45,36.45Zm4.14,7.14c-.69.43-1.06.66-3-.08a10.13,10.13,0,0,1-3-2.23,14.71,14.71,0,0,0-3.19-2.5c-1.95-1-2.43-1.26-3.63-1.26l-1.11,0-.28,0c-1,0-4.19.26-5.26,1.21a2.61,2.61,0,0,0-.53.67c-.18.31-.26.44-.92.5A2.28,2.28,0,0,1,17,39.28c-.09-.08-.19-.15-.3-.23l.94-.39a11.74,11.74,0,0,0,1.73-.8c.47-.32.93-.66,1.38-1-.49.25-1,.49-1.49.72a11.31,11.31,0,0,1-1.69.79l-1.18.49-.25-.16a3.19,3.19,0,0,0-2.07,0,2.87,2.87,0,0,1-1.92,0,14.78,14.78,0,0,1-2.89-3.25l-.17-.17a4.3,4.3,0,0,1-1.47-2.14A3.71,3.71,0,0,1,7.6,31a4.33,4.33,0,0,0,.15-1.25,3.35,3.35,0,0,0,.55,0l1,4.13,1.08,1.27,1.85,1.93L10.71,35,9.62,33.77l-1-4h.11l.75-.12-.73,0a5.91,5.91,0,0,1-1,0,2,2,0,0,0,0-.24C7.5,28.63,6.55,28.05,5,27.2A8.16,8.16,0,0,1,3.22,26a3.84,3.84,0,0,1-.91-2.34,12.1,12.1,0,0,1,.95-2.85,18.75,18.75,0,0,0,.74-2,8.47,8.47,0,0,0,.94.39l-.22,4,.64,1.69,1.09,2.46L5.7,24.87l-.65-1.71.21-3.83a6.1,6.1,0,0,0,1,.22,3.89,3.89,0,0,0,1.32-.08l.54,3.1,1.17,1.59L10.84,26,9.6,24.05l-1.18-1.6-.52-3a8.9,8.9,0,0,0,1.42-.55c.44-.25.85-.53,1.26-.81l1.61,3.21,1,1.23,1.61,1.78-1.34-1.9-1-1.27-1.62-3.23.79-.58a17.78,17.78,0,0,1-2.41,1.08,5.21,5.21,0,0,1-2.81.69,6.41,6.41,0,0,1-2.27-.72h0a4.51,4.51,0,0,0-1.26-2.68,5.62,5.62,0,0,1-.57-.85A1.9,1.9,0,0,1,2.56,14,3.63,3.63,0,0,0,3,12.69l.37-.08L3,15.06l.37.71.82,1.36-.62-1.4L3.23,15l.31-2.47A8.37,8.37,0,0,0,5.14,12L6.22,14.1l.25.63.61,1.34L6.65,14.7,6.38,14,5.3,11.94A3.72,3.72,0,0,0,6.46,11l.06-.08,1.67,2.56.74.81,1.43,1.4L9.15,14.16l-.77-.84-1.7-2.61c.23-.29.47-.58.69-.88s.49-.87.72-1.31l1.75,1.82,1.15.41,1.66.51-1.54-.68L10,10.16,8.2,8.33c.15-.28.32-.55.46-.82-.52.67-1.07,1.34-1.63,2-.28.4-.58.79-.89,1.15a3.43,3.43,0,0,1-1.06.89,8.66,8.66,0,0,1-2.16.69,2,2,0,0,0-1-1.05c-.32-.21-.61-.38-.71-.67A8.91,8.91,0,0,1,2,7.63c0-.07,0-.11.06-.17l.69,1.38V9l0,.94L2.85,9V8.82L2.1,7.31a12.13,12.13,0,0,0,.43-1.39l.85,1.61L3.85,8,5.49,9.63,4.1,7.9l-.49-.53-1-2a6.67,6.67,0,0,0-.33-1.35c-.3-.94-.68-2.21-.26-2.69L3.72,3.69l1.19,1L6.75,6.05,5.14,4.51l-1.22-1L2.22,1.23c.6,0,2,1.26,2.86,2A10.4,10.4,0,0,0,7.74,5.13a5.36,5.36,0,0,0,2.89,0,4.64,4.64,0,0,1,2.34,0c.75.25.91.74,1.11,1.36a2.27,2.27,0,0,0,1,1.51l.19.08c.07.7.13,1.41.16,2.12a5.41,5.41,0,0,1-.37,2.63A11.68,11.68,0,0,1,14,15c.11-.13.2-.27.31-.4h0l2,1.1.65.75,1,1.08-.87-1.16-.71-.81-2-1.11a11.15,11.15,0,0,0,1-1.46,4.75,4.75,0,0,0,.31-1l2.56.63,1.08.83,1.57,1.07-1.38-1.22-1.17-.9-2.61-.63a1.22,1.22,0,0,0,0-.17,9.65,9.65,0,0,0,0-1.42c0-.46,0-.91-.08-1.36l2.78-.4.74.56,1.5,1L19.39,8.89l-.86-.64-2.86.4c0-.17,0-.34-.05-.5a2.85,2.85,0,0,0,1.46-.44,3.21,3.21,0,0,1,3.11-.23A3.12,3.12,0,0,1,22,10a3.81,3.81,0,0,0,1.12,2.11l0,0a8.15,8.15,0,0,1,.11,1.47,3,3,0,0,1-.4,1.65,4.77,4.77,0,0,1-.67.61,4.06,4.06,0,0,0-.71.84,7.44,7.44,0,0,0-.85,1.94,13.68,13.68,0,0,0-.35,2,9.57,9.57,0,0,1-.43,1.85,5.66,5.66,0,0,1-2.05,3c-.44.37-.94.72-1.42,1.09a13.83,13.83,0,0,1-1.45,1c-1,.62-2.07,1.19-3.15,1.72.84-.3,1.67-.62,2.49-1v3.94L15,33.42l1.34,2.06-1-2.14-.68-1.17v-4l.47-.2c.48-.22.95-.45,1.42-.72l.87,3.44L18,31.86l1.26,2-1-2.06-.67-1.18-.88-3.48,1.42-.83a6.63,6.63,0,0,0,1.54-1.5c0-.05.06-.11.1-.17l2.75,2,.83,1.08,1.56,1.81-1.28-1.92-.9-1.18-2.82-2.08a9.11,9.11,0,0,0,.71-1.48,11.45,11.45,0,0,0,.4-1.5l3,.8.81.74,1.64,1.33L25.1,22.79,24.19,22l-3.11-.83c0-.09,0-.18.05-.28a16,16,0,0,1,.32-1.94,6.43,6.43,0,0,1,.73-1.73l0-.05h1.46l.8.41,1.16.51-1.06-.63L23.71,17H22.32a2.79,2.79,0,0,1,.42-.49,7.6,7.6,0,0,0,.79-.72,3.77,3.77,0,0,0,.61-2.17,8.46,8.46,0,0,0,0-1,2.59,2.59,0,0,0,1.24,0,1.51,1.51,0,0,1,1.3.2c.59.38.64.6.72.92a2.39,2.39,0,0,0,1,1.5l.17,1.58a14.2,14.2,0,0,1,0,2c0,.66,0,1.33-.06,2l-.07,1a9.38,9.38,0,0,0,0,1.06,36.53,36.53,0,0,1,.18,4,13.34,13.34,0,0,1-.31,1.93,4.59,4.59,0,0,1-.23.89,1.53,1.53,0,0,1-.52.59c-1.81,1.66-3.55,3.36-5.32,5l4.2-3.11c.45.75,1.74,2.92,2.61,4.26a15.15,15.15,0,0,0,4.15,3.94l.21.15A21,21,0,0,1,35.18,42c.71.65,1.23,1.13,1.69,1.13a.67.67,0,0,0,.41-.15c.74-.56.77-2.16.41-3.39a3.37,3.37,0,0,0-.7-1.26,3.88,3.88,0,0,1-.93-2,13.34,13.34,0,0,1,.15-3.78,26.22,26.22,0,0,0,.27-3.21c0-.64,0-1.17.05-1.67a10.38,10.38,0,0,0-.6-4.71c-1-2.74-1.34-3.65-2.9-4.77A8.34,8.34,0,0,0,29.43,17a1.94,1.94,0,0,0,0-.24l-.12-1.13a3.69,3.69,0,0,0,1.22-.13,2.35,2.35,0,0,1,2.69.76c.42.41.78.73,1.1,1,1.39,1.23,1.86,1.65,2.67,6.54a21.35,21.35,0,0,1,0,7.11,15.19,15.19,0,0,0,0,5.63A7.52,7.52,0,0,0,39.5,41.2c.41.37.6.55.63.84C40.27,43.17,40.27,43.17,39.59,43.59Z"/></svg>